{
	"asset":{
		"generator":"Khronos glTF Blender I/O v3.5.30",
		"version":"2.0"
	},
	"extensionsUsed":[
		"KHR_materials_specular"
	],
	"scene":0,
	"scenes":[
		{
			"name":"Scene",
			"nodes":[
				0
			]
		}
	],
	"nodes":[
		{
			"mesh":0,
			"name":"Object_2",
			"rotation":[
				-0.5,
				0.5,
				-0.5,
				0.5
			],
			"translation":[
				0.5762715935707092,
				-0.5762715935707092,
				0
			]
		}
	],
	"materials":[
		{
			"doubleSided":true,
			"extensions":{
				"KHR_materials_specular":{
					"specularColorFactor":[
						1.9999999999999998,
						1.9999999999999998,
						1.9999999999999998
					]
				}
			},
			"name":"material1",
			"pbrMetallicRoughness":{
				"roughnessFactor":0
			}
		}
	],
	"meshes":[
		{
			"name":"Object_0",
			"primitives":[
				{
					"attributes":{
						"POSITION":0,
						"TEXCOORD_0":1,
						"NORMAL":2
					},
					"indices":3,
					"material":0
				}
			]
		}
	],
	"accessors":[
		{
			"bufferView":0,
			"componentType":5126,
			"count":51416,
			"max":[
				9.934991836547852,
				9.934991836547852,
				1.7987102270126343
			],
			"min":[
				-9.934991836547852,
				-9.934991836547852,
				-2.9512534141540527
			],
			"type":"VEC3"
		},
		{
			"bufferView":1,
			"componentType":5126,
			"count":51416,
			"type":"VEC2"
		},
		{
			"bufferView":2,
			"componentType":5126,
			"count":51416,
			"type":"VEC3"
		},
		{
			"bufferView":3,
			"componentType":5123,
			"count":96768,
			"type":"SCALAR"
		}
	],
	"bufferViews":[
		{
			"buffer":0,
			"byteLength":616992,
			"byteOffset":0,
			"target":34962
		},
		{
			"buffer":0,
			"byteLength":411328,
			"byteOffset":616992,
			"target":34962
		},
		{
			"buffer":0,
			"byteLength":616992,
			"byteOffset":1028320,
			"target":34962
		},
		{
			"buffer":0,
			"byteLength":193536,
			"byteOffset":1645312,
			"target":34963
		}
	],
	"buffers":[
		{
			"byteLength":1838848,
			"uri":"scene.bin"
		}
	]
}
