{
	"asset":{
		"generator":"Khronos glTF Blender I/O v3.5.30",
		"version":"2.0"
	},
	"extensionsUsed":[
		"KHR_materials_specular",
		"KHR_materials_ior"
	],
	"scene":0,
	"scenes":[
		{
			"name":"Scene",
			"nodes":[
				0
			]
		}
	],
	"nodes":[
		{
			"mesh":0,
			"name":"perfectDiamondRing",
			"rotation":[
				0.7071068286895752,
				0,
				0,
				0.7071068286895752
			]
		}
	],
	"materials":[
		{
			"doubleSided":true,
			"extensions":{
				"KHR_materials_specular":{
					"specularColorFactor":[
						2.371357614441398,
						2.371357614441398,
						2.371357614441398
					]
				},
				"KHR_materials_ior":{
					"ior":1.4500000476837158
				}
			},
			"name":"Base2",
			"pbrMetallicRoughness":{
				"baseColorFactor":[
					0.6892281174659729,
					0.6892281174659729,
					0.6892281174659729,
					1
				],
				"roughnessFactor":0.30000001192092896
			}
		},
		{
			"alphaMode":"BLEND",
			"doubleSided":true,
			"name":"Diamond",
			"pbrMetallicRoughness":{}
		},
		{
			"alphaMode":"BLEND",
			"doubleSided":true,
			"emissiveFactor":[
				1,
				1,
				1
			],
			"emissiveTexture":{
				"index":0
			},
			"extensions":{
				"KHR_materials_specular":{
					"specularColorFactor":[
						2.371357614441398,
						2.371357614441398,
						2.371357614441398
					]
				},
				"KHR_materials_ior":{
					"ior":1.4500000476837158
				}
			},
			"name":"Diamond_Giant",
			"pbrMetallicRoughness":{
				"baseColorFactor":[
					0.800000011920929,
					0.800000011920929,
					0.800000011920929,
					0.699999988079071
				],
				"roughnessFactor":0
			}
		}
	],
	"meshes":[
		{
			"name":"perfectDiamondRing",
			"primitives":[
				{
					"attributes":{
						"POSITION":0,
						"TEXCOORD_0":1,
						"NORMAL":2
					},
					"indices":3,
					"material":0
				},
				{
					"attributes":{
						"POSITION":4,
						"TEXCOORD_0":5,
						"NORMAL":6
					},
					"indices":7,
					"material":1
				},
				{
					"attributes":{
						"POSITION":8,
						"TEXCOORD_0":9,
						"NORMAL":10
					},
					"indices":11,
					"material":2
				}
			]
		}
	],
	"textures":[
		{
			"sampler":0,
			"source":0
		}
	],
	"images":[
		{
			"mimeType":"image/png",
			"name":"DiamondRingColor2",
			"uri":"textures/z/DiamondRingColor2.png"
		}
	],
	"accessors":[
		{
			"bufferView":0,
			"componentType":5126,
			"count":22590,
			"max":[
				8.75883674621582,
				2.8852930068969727,
				8.505000114440918
			],
			"min":[
				-8.758687973022461,
				-2.5851354598999023,
				-11.9173002243042
			],
			"type":"VEC3"
		},
		{
			"bufferView":1,
			"componentType":5126,
			"count":22590,
			"type":"VEC2"
		},
		{
			"bufferView":2,
			"componentType":5126,
			"count":22590,
			"type":"VEC3"
		},
		{
			"bufferView":3,
			"componentType":5123,
			"count":84006,
			"type":"SCALAR"
		},
		{
			"bufferView":4,
			"componentType":5126,
			"count":50279,
			"max":[
				7.68798828125,
				2.0737953186035156,
				-4.068044662475586
			],
			"min":[
				-7.687970161437988,
				-1.7736202478408813,
				-9.549726486206055
			],
			"type":"VEC3"
		},
		{
			"bufferView":5,
			"componentType":5126,
			"count":50279,
			"type":"VEC2"
		},
		{
			"bufferView":6,
			"componentType":5126,
			"count":50279,
			"type":"VEC3"
		},
		{
			"bufferView":7,
			"componentType":5123,
			"count":161118,
			"type":"SCALAR"
		},
		{
			"bufferView":8,
			"componentType":5126,
			"count":874,
			"max":[
				2.5,
				2.650233745574951,
				-8.916299819946289
			],
			"min":[
				-2.5,
				-2.349766254425049,
				-11.916299819946289
			],
			"type":"VEC3"
		},
		{
			"bufferView":9,
			"componentType":5126,
			"count":874,
			"type":"VEC2"
		},
		{
			"bufferView":10,
			"componentType":5126,
			"count":874,
			"type":"VEC3"
		},
		{
			"bufferView":11,
			"componentType":5123,
			"count":1296,
			"type":"SCALAR"
		}
	],
	"bufferViews":[
		{
			"buffer":0,
			"byteLength":271080,
			"byteOffset":0,
			"target":34962
		},
		{
			"buffer":0,
			"byteLength":180720,
			"byteOffset":271080,
			"target":34962
		},
		{
			"buffer":0,
			"byteLength":271080,
			"byteOffset":451800,
			"target":34962
		},
		{
			"buffer":0,
			"byteLength":168012,
			"byteOffset":722880,
			"target":34963
		},
		{
			"buffer":0,
			"byteLength":603348,
			"byteOffset":890892,
			"target":34962
		},
		{
			"buffer":0,
			"byteLength":402232,
			"byteOffset":1494240,
			"target":34962
		},
		{
			"buffer":0,
			"byteLength":603348,
			"byteOffset":1896472,
			"target":34962
		},
		{
			"buffer":0,
			"byteLength":322236,
			"byteOffset":2499820,
			"target":34963
		},
		{
			"buffer":0,
			"byteLength":10488,
			"byteOffset":2822056,
			"target":34962
		},
		{
			"buffer":0,
			"byteLength":6992,
			"byteOffset":2832544,
			"target":34962
		},
		{
			"buffer":0,
			"byteLength":10488,
			"byteOffset":2839536,
			"target":34962
		},
		{
			"buffer":0,
			"byteLength":2592,
			"byteOffset":2850024,
			"target":34963
		}
	],
	"samplers":[
		{
			"magFilter":9729,
			"minFilter":9987
		}
	],
	"buffers":[
		{
			"byteLength":2852616,
			"uri":"scene.bin"
		}
	]
}
