{
	"asset":{
		"generator":"Khronos glTF Blender I/O v3.5.30",
		"version":"2.0"
	},
	"extensionsUsed":[
		"KHR_materials_specular",
		"KHR_materials_ior"
	],
	"scene":0,
	"scenes":[
		{
			"name":"Scene",
			"nodes":[
				0
			]
		}
	],
	"nodes":[
		{
			"mesh":0,
			"name":"TRY2OBJ",
			"rotation":[
				0.7071068286895752,
				0,
				0,
				0.7071068286895752
			]
		}
	],
	"materials":[
		{
			"doubleSided":true,
			"extensions":{
				"KHR_materials_specular":{
					"specularColorFactor":[
						0,
						0,
						0
					]
				},
				"KHR_materials_ior":{
					"ior":1.4500000476837158
				}
			},
			"name":"Material_1",
			"pbrMetallicRoughness":{
				"baseColorTexture":{
					"index":0
				},
				"metallicRoughnessTexture":{
					"index":1
				}
			}
		},
		{
			"alphaMode":"BLEND",
			"doubleSided":true,
			"emissiveFactor":[
				1,
				1,
				1
			],
			"emissiveTexture":{
				"index":2
			},
			"extensions":{
				"KHR_materials_specular":{
					"specularColorFactor":[
						0,
						0,
						0
					]
				},
				"KHR_materials_ior":{
					"ior":1.4500000476837158
				}
			},
			"name":"Material_2",
			"pbrMetallicRoughness":{
				"baseColorTexture":{
					"index":3
				},
				"metallicRoughnessTexture":{
					"index":4
				}
			}
		}
	],
	"meshes":[
		{
			"name":"TRY2OBJ",
			"primitives":[
				{
					"attributes":{
						"POSITION":0,
						"TEXCOORD_0":1,
						"NORMAL":2
					},
					"indices":3,
					"material":0
				},
				{
					"attributes":{
						"POSITION":4,
						"TEXCOORD_0":5,
						"NORMAL":6
					},
					"indices":7,
					"material":1
				}
			]
		}
	],
	"textures":[
		{
			"sampler":0,
			"source":0
		},
		{
			"sampler":0,
			"source":1
		},
		{
			"sampler":0,
			"source":2
		},
		{
			"sampler":0,
			"source":3
		},
		{
			"sampler":0,
			"source":4
		}
	],
	"images":[
		{
			"mimeType":"image/png",
			"name":"BaseColor",
			"uri":"textures/yy/BaseColor.png"
		},
		{
			"mimeType":"image/png",
			"name":"Metalic-Roughness",
			"uri":"textures/yy/Metalic-Roughness.png"
		},
		{
			"mimeType":"image/png",
			"name":"EmissionDiamond",
			"uri":"textures/yy/EmissionDiamond.png"
		},
		{
			"mimeType":"image/png",
			"name":"BaseColorDiamond-AlphaDiamond",
			"uri":"textures/yy/BaseColorDiamond-AlphaDiamond.png"
		},
		{
			"mimeType":"image/png",
			"name":"MetalicDiamond-RoughnessDiamond",
			"uri":"textures/yy/MetalicDiamond-RoughnessDiamond.png"
		}
	],
	"accessors":[
		{
			"bufferView":0,
			"componentType":5126,
			"count":1511,
			"max":[
				10.087409019470215,
				1.250074028968811,
				9.850000381469727
			],
			"min":[
				-10.087409019470215,
				-1.250074028968811,
				-13.258563995361328
			],
			"type":"VEC3"
		},
		{
			"bufferView":1,
			"componentType":5126,
			"count":1511,
			"type":"VEC2"
		},
		{
			"bufferView":2,
			"componentType":5126,
			"count":1511,
			"type":"VEC3"
		},
		{
			"bufferView":3,
			"componentType":5123,
			"count":5808,
			"type":"SCALAR"
		},
		{
			"bufferView":4,
			"componentType":5126,
			"count":865,
			"max":[
				2.5999999046325684,
				2.5999999046325684,
				-11.394200325012207
			],
			"min":[
				-2.5999999046325684,
				-2.5999999046325684,
				-14.514200210571289
			],
			"type":"VEC3"
		},
		{
			"bufferView":5,
			"componentType":5126,
			"count":865,
			"type":"VEC2"
		},
		{
			"bufferView":6,
			"componentType":5126,
			"count":865,
			"type":"VEC3"
		},
		{
			"bufferView":7,
			"componentType":5123,
			"count":1296,
			"type":"SCALAR"
		}
	],
	"bufferViews":[
		{
			"buffer":0,
			"byteLength":18132,
			"byteOffset":0,
			"target":34962
		},
		{
			"buffer":0,
			"byteLength":12088,
			"byteOffset":18132,
			"target":34962
		},
		{
			"buffer":0,
			"byteLength":18132,
			"byteOffset":30220,
			"target":34962
		},
		{
			"buffer":0,
			"byteLength":11616,
			"byteOffset":48352,
			"target":34963
		},
		{
			"buffer":0,
			"byteLength":10380,
			"byteOffset":59968,
			"target":34962
		},
		{
			"buffer":0,
			"byteLength":6920,
			"byteOffset":70348,
			"target":34962
		},
		{
			"buffer":0,
			"byteLength":10380,
			"byteOffset":77268,
			"target":34962
		},
		{
			"buffer":0,
			"byteLength":2592,
			"byteOffset":87648,
			"target":34963
		}
	],
	"samplers":[
		{
			"magFilter":9729,
			"minFilter":9987
		}
	],
	"buffers":[
		{
			"byteLength":90240,
			"uri":"scene4.bin"
		}
	]
}
