<?xml version="1.0" encoding="utf-8"?>
<!-- Generator: Adobe Illustrator 27.0.1, SVG Export Plug-In . SVG Version: 6.00 Build 0)  -->
<svg version="1.1" id="E_copy" xmlns="http://www.w3.org/2000/svg" xmlns:xlink="http://www.w3.org/1999/xlink" x="0px" y="0px"
	 viewBox="0 0 1000 1000" style="enable-background:new 0 0 1000 1000;" xml:space="preserve">
<g>
	<path d="M331.69,602.5c-62.03,0-112.49-50.48-112.49-112.52c0-62.04,50.46-112.52,112.49-112.52
		c62.03,0,112.49,50.48,112.49,112.52C444.18,552.02,393.71,602.5,331.69,602.5z M331.69,402.46c-48.24,0-87.49,39.26-87.49,87.52
		c0,48.26,39.25,87.52,87.49,87.52s87.49-39.26,87.49-87.52C419.18,441.72,379.93,402.46,331.69,402.46z"/>
	<circle cx="412.51" cy="559.12" r="27.38"/>
	<path d="M495.05,563.31c-15.75,0-28.56-12.81-28.56-28.56c0-15.75,12.81-28.56,28.56-28.56c15.75,0,28.56,12.81,28.56,28.56
		C523.61,550.49,510.8,563.31,495.05,563.31z M495.05,520.22c-8.01,0-14.53,6.52-14.53,14.53c0,8.01,6.52,14.53,14.53,14.53
		c8.01,0,14.53-6.52,14.53-14.53C509.58,526.73,503.06,520.22,495.05,520.22z"/>
	<path d="M766.53,476.51l-18.58-36.72c-1.88-3.72-0.39-8.26,3.33-10.14l0,0c3.72-1.88,8.26-0.39,10.14,3.33l18.58,36.72
		c1.88,3.72,0.39,8.26-3.33,10.14v0C772.95,481.71,768.41,480.23,766.53,476.51z"/>
	<circle cx="732.63" cy="400.3" r="18.24"/>
	<path d="M610.65,499.14c0.68-0.76,1.55-1.27,2.42-1.37c1.22-0.14,2.59,0.48,3.56,1.64l4.47,3.57l2.94,1.08l-0.57,0.81l3.47,2.77
		c1-1.98,1.46-4.19,1.21-6.47c-0.78-7-7.93-11.97-15.93-11.07c-8,0.89-13.88,7.32-13.1,14.32c0.28,2.52,1.4,4.76,3.07,6.58
		l8.39-11.88L610.65,499.14z"/>
	<path d="M565.79,542.15c-8.68,0-14.75-4.13-18.02-6.35c-5.52-3.75-10.66-9-17.79-22.38c-3.19-5.99-8.53-16.01-12.93-31.31
		c-3.22-11.21-5.23-22.86-5.96-34.63l14.97-0.93c0.67,10.69,2.48,21.26,5.4,31.42c3.96,13.78,8.84,22.93,11.75,28.4
		c6.32,11.87,10.02,15.01,12.99,17.03c2.46,1.67,5.52,3.75,9.59,3.75c0.02,0,0.03,0,0.05,0c3.36-0.01,6.12-1.38,7.92-2.6
		c0.89-0.78,1.76-1.59,2.6-2.42c4.35-4.31,6.84-8.19,8.49-10.75l0.07-0.1c1.72-2.67,3.69-5.7,5.88-9.07
		c2.88-4.43,6.15-9.46,9.74-15.04l0.73-1.14l0.45-0.33c1.76-1.95,5.28-5.18,9.66-5.84c4.33-0.65,8.64,1.26,12.77,5.67
		c2.3,2.45,5.68,5.99,9.96,10.46c4.35,4.55,9.62,10.06,15.59,16.35l-10.88,10.32c-5.95-6.27-11.2-11.76-15.54-16.31
		c-4.31-4.51-7.71-8.07-10.06-10.57c-0.07-0.07-0.13-0.14-0.19-0.2c-0.06,0.06-0.11,0.11-0.16,0.17
		c-3.48,5.42-6.66,10.31-9.48,14.63c-2.18,3.35-4.14,6.36-5.84,9.01l-0.07,0.1c-1.76,2.73-5.03,7.81-10.53,13.27
		c-1.17,1.17-2.41,2.31-3.65,3.38l-0.56,0.44c-3.55,2.52-9.35,5.53-16.81,5.56C565.87,542.15,565.83,542.15,565.79,542.15z"/>
	<path d="M649.74,512.4c-0.02-0.03-0.04-0.06-0.05-0.09c0-0.01-0.01-0.01-0.01-0.01l-3.63-3.79c-2.84-1.37-6.39-0.93-8.9,1.4
		c-2.54,2.35-3.24,5.91-2.04,8.86l3.86,4.04c2.81,1.29,6.29,0.82,8.76-1.47c2.55-2.36,3.25-5.95,2.01-8.92
		C649.75,512.41,649.75,512.41,649.74,512.4z"/>
	<ellipse transform="matrix(0.9987 -0.0501 0.0501 0.9987 -21.774 26.5622)" cx="518.57" cy="447.3" rx="7.52" ry="6.85"/>
	<path d="M581.64,567.51"/>
	<path d="M721.26,494.58c-18.14,4.1-22.25,3.51-22.71,2.25c-0.94-2.57,10.44-11.71,16.48-14.89c0.75-0.4,3.3-1.69,5.52-4.33
		c1.66-1.97,2.46-3.88,2.7-4.48c0.46-1.15,0.66-2.1,1.03-3.93c0.32-1.55,0.69-3.34,0.91-5.77c0.22-2.36,0.28-4.44,1.47-6.34
		c0.11-0.18,0.23-0.33,0.35-0.48c1.47-1.77,3.43-2.27,3.81-2.36c0.41-0.1,3.6-0.79,6.03,1.37c1.69,1.5,2,3.48,2.07,4.09"/>
	<path d="M689.25,501.68c-1.47,0-2.94-0.16-4.42-0.5c-6.13-1.41-11.37-5.73-14.36-11.86c-2.79-5.72-3.49-12.55-1.95-19.23
		c3.29-14.32,15.95-23.69,28.23-20.87c12.28,2.82,19.6,16.76,16.31,31.08v0C710.16,492.91,700.01,501.68,689.25,501.68z
		 M692.28,462.5c-4.39,0-8.91,4.53-10.32,10.67c-0.82,3.56-0.49,7.24,0.91,10.1c0.68,1.39,2.24,3.82,5.05,4.47
		c4.79,1.1,10.15-3.72,11.71-10.52v0c1.56-6.8-1.17-13.47-5.96-14.57C693.2,462.55,692.74,462.5,692.28,462.5z"/>
	<path d="M739.25,459.34c0.38,2.06,0.77,5.08,0.6,8.61c-0.03,0.67-0.19,3.55-1,6.87c-0.05,0.2-0.08,0.35-0.14,0.56
		c-0.67,2.45-1.73,4.26-2.49,5.57c-0.23,0.4-1.36,2.31-3.28,4.58c-2.06,2.43-3.96,3.98-5.4,5.15c-1.77,1.43-3.12,2.34-5,3.58
		c-2.59,1.71-5.59,3.69-9.8,5.7c-1.84,0.88-4.04,1.82-6.77,2.59c-1.93,0.54-3.1,0.7-4.18,0.75c-1.81,0.07-3.31-0.19-4.33-0.45"/>
	<rect x="661.55" y="497.04" transform="matrix(-0.866 0.5 -0.5 -0.866 1526.6781 599.4519)" width="42.96" height="14.45"/>
	<ellipse transform="matrix(0.866 -0.5 0.5 0.866 -168.4836 401.2123)" cx="664.43" cy="515" rx="5.82" ry="7.22"/>
	<ellipse transform="matrix(0.9853 -0.1711 0.1711 0.9853 -67.884 132.3051)" cx="733.81" cy="460.08" rx="5.49" ry="5.73"/>
	<ellipse transform="matrix(0.6096 -0.7927 0.7927 0.6096 -164.709 710.6029)" cx="639.08" cy="522.52" rx="0.29" ry="0.46"/>
	<circle cx="638.98" cy="522.77" r="0.03"/>
</g>
</svg>
